<mxfile host="app.diagrams.net" agent="Mozilla/5.0 (Windows NT 10.0; Win64; x64) AppleWebKit/537.36 (KHTML, like Gecko) Chrome/133.0.0.0 Safari/537.36" version="26.0.16">
  <diagram name="Page-1" id="w-GSn4rVRWABjTmaKZI6">
    <mxGraphModel grid="1" page="1" gridSize="10" guides="1" tooltips="1" connect="1" arrows="1" fold="1" pageScale="1" pageWidth="827" pageHeight="1169" math="0" shadow="0">
      <root>
        <mxCell id="0" />
        <mxCell id="1" parent="0" />
        <mxCell id="q7jykslJOJeomc6oTT44-5" value="" style="ellipse;whiteSpace=wrap;html=1;fillColor=#eeeeee;strokeColor=#36393d;" vertex="1" parent="1">
          <mxGeometry x="100" y="425" width="360" height="185" as="geometry" />
        </mxCell>
        <mxCell id="WQZjAUGiDbMSdwALumP2-9" style="rounded=0;orthogonalLoop=1;jettySize=auto;html=1;exitX=0;exitY=0;exitDx=0;exitDy=0;entryX=0.75;entryY=1;entryDx=0;entryDy=0;" edge="1" parent="1" source="DvwwTDt49NaDKmFEODTx-2" target="WQZjAUGiDbMSdwALumP2-16">
          <mxGeometry relative="1" as="geometry">
            <mxPoint x="329.35376829725794" y="103.83445223168894" as="targetPoint" />
          </mxGeometry>
        </mxCell>
        <mxCell id="DvwwTDt49NaDKmFEODTx-2" value="Person with dementia - wander away" style="ellipse;whiteSpace=wrap;html=1;" vertex="1" parent="1">
          <mxGeometry x="370" y="220" width="140" height="90" as="geometry" />
        </mxCell>
        <mxCell id="WQZjAUGiDbMSdwALumP2-2" value="Local shop" style="text;html=1;align=center;verticalAlign=middle;resizable=0;points=[];autosize=1;strokeColor=none;fillColor=none;" vertex="1" parent="1">
          <mxGeometry x="160" y="450" width="80" height="30" as="geometry" />
        </mxCell>
        <mxCell id="WQZjAUGiDbMSdwALumP2-17" style="rounded=0;orthogonalLoop=1;jettySize=auto;html=1;exitX=1;exitY=0.5;exitDx=0;exitDy=0;entryX=0;entryY=0.5;entryDx=0;entryDy=0;" edge="1" parent="1" source="WQZjAUGiDbMSdwALumP2-3" target="DvwwTDt49NaDKmFEODTx-2">
          <mxGeometry relative="1" as="geometry" />
        </mxCell>
        <mxCell id="WQZjAUGiDbMSdwALumP2-23" style="rounded=0;orthogonalLoop=1;jettySize=auto;html=1;exitX=0.5;exitY=1;exitDx=0;exitDy=0;entryX=0;entryY=0;entryDx=0;entryDy=0;" edge="1" parent="1" source="WQZjAUGiDbMSdwALumP2-3" target="q7jykslJOJeomc6oTT44-1">
          <mxGeometry relative="1" as="geometry" />
        </mxCell>
        <mxCell id="WQZjAUGiDbMSdwALumP2-25" style="rounded=0;orthogonalLoop=1;jettySize=auto;html=1;exitX=0.5;exitY=1;exitDx=0;exitDy=0;" edge="1" parent="1" source="WQZjAUGiDbMSdwALumP2-3" target="WQZjAUGiDbMSdwALumP2-24">
          <mxGeometry relative="1" as="geometry" />
        </mxCell>
        <mxCell id="WQZjAUGiDbMSdwALumP2-3" value="Spouse of a person with dementia - looking for her husband" style="ellipse;whiteSpace=wrap;html=1;" vertex="1" parent="1">
          <mxGeometry x="-50" y="130" width="130" height="98" as="geometry" />
        </mxCell>
        <mxCell id="q7jykslJOJeomc6oTT44-1" value="Shopkeeper - help to find person with dementia&amp;nbsp;" style="ellipse;whiteSpace=wrap;html=1;" vertex="1" parent="1">
          <mxGeometry x="300" y="490" width="130" height="90" as="geometry" />
        </mxCell>
        <mxCell id="WQZjAUGiDbMSdwALumP2-4" style="rounded=0;orthogonalLoop=1;jettySize=auto;html=1;exitX=0;exitY=1;exitDx=0;exitDy=0;entryX=0.622;entryY=0.011;entryDx=0;entryDy=0;entryPerimeter=0;" edge="1" parent="1" source="DvwwTDt49NaDKmFEODTx-2" target="q7jykslJOJeomc6oTT44-5">
          <mxGeometry relative="1" as="geometry" />
        </mxCell>
        <mxCell id="WQZjAUGiDbMSdwALumP2-10" value="wander to" style="text;html=1;align=center;verticalAlign=middle;resizable=0;points=[];autosize=1;strokeColor=none;fillColor=none;" vertex="1" parent="1">
          <mxGeometry x="330" y="153" width="80" height="30" as="geometry" />
        </mxCell>
        <mxCell id="WQZjAUGiDbMSdwALumP2-11" value="walk to" style="text;html=1;align=center;verticalAlign=middle;resizable=0;points=[];autosize=1;strokeColor=none;fillColor=none;" vertex="1" parent="1">
          <mxGeometry x="340" y="360" width="60" height="30" as="geometry" />
        </mxCell>
        <mxCell id="WQZjAUGiDbMSdwALumP2-13" value="forget the way to get back home" style="text;html=1;align=center;verticalAlign=middle;resizable=0;points=[];autosize=1;strokeColor=none;fillColor=none;" vertex="1" parent="1">
          <mxGeometry x="410" y="344" width="190" height="30" as="geometry" />
        </mxCell>
        <mxCell id="WQZjAUGiDbMSdwALumP2-14" value="" style="shape=mxgraph.signs.safety.high_voltage_2;html=1;pointerEvents=1;fillColor=#FFB343;strokeColor=none;verticalLabelPosition=bottom;verticalAlign=top;align=center;sketch=0;" vertex="1" parent="1">
          <mxGeometry x="400" y="344" width="10" height="30" as="geometry" />
        </mxCell>
        <mxCell id="WQZjAUGiDbMSdwALumP2-16" value="Local park" style="rounded=0;whiteSpace=wrap;html=1;" vertex="1" parent="1">
          <mxGeometry x="210" y="105" width="100" height="25" as="geometry" />
        </mxCell>
        <mxCell id="WQZjAUGiDbMSdwALumP2-18" value="looking for" style="text;html=1;align=center;verticalAlign=middle;resizable=0;points=[];autosize=1;strokeColor=none;fillColor=none;rotation=0;" vertex="1" parent="1">
          <mxGeometry x="160" y="178" width="80" height="30" as="geometry" />
        </mxCell>
        <mxCell id="WQZjAUGiDbMSdwALumP2-19" value="have no clue where he is" style="text;html=1;align=center;verticalAlign=middle;resizable=0;points=[];autosize=1;strokeColor=none;fillColor=none;" vertex="1" parent="1">
          <mxGeometry x="130" y="228" width="160" height="30" as="geometry" />
        </mxCell>
        <mxCell id="WQZjAUGiDbMSdwALumP2-20" value="" style="shape=mxgraph.signs.safety.high_voltage_2;html=1;pointerEvents=1;fillColor=#FFB343;strokeColor=none;verticalLabelPosition=bottom;verticalAlign=top;align=center;sketch=0;" vertex="1" parent="1">
          <mxGeometry x="125" y="228" width="10" height="30" as="geometry" />
        </mxCell>
        <mxCell id="WQZjAUGiDbMSdwALumP2-27" style="rounded=0;orthogonalLoop=1;jettySize=auto;html=1;exitX=1;exitY=0.5;exitDx=0;exitDy=0;entryX=-0.003;entryY=0.704;entryDx=0;entryDy=0;entryPerimeter=0;" edge="1" parent="1" source="WQZjAUGiDbMSdwALumP2-24" target="DvwwTDt49NaDKmFEODTx-2">
          <mxGeometry relative="1" as="geometry" />
        </mxCell>
        <mxCell id="WQZjAUGiDbMSdwALumP2-24" value="Police - help to find person with dementia" style="ellipse;whiteSpace=wrap;html=1;" vertex="1" parent="1">
          <mxGeometry x="-50" y="410" width="120" height="80" as="geometry" />
        </mxCell>
        <mxCell id="WQZjAUGiDbMSdwALumP2-26" value="ask for help" style="text;html=1;align=center;verticalAlign=middle;resizable=0;points=[];autosize=1;strokeColor=none;fillColor=none;" vertex="1" parent="1">
          <mxGeometry x="-70" y="314" width="90" height="30" as="geometry" />
        </mxCell>
        <mxCell id="WQZjAUGiDbMSdwALumP2-28" value="help to find" style="text;html=1;align=center;verticalAlign=middle;resizable=0;points=[];autosize=1;strokeColor=none;fillColor=none;" vertex="1" parent="1">
          <mxGeometry x="55" y="390" width="80" height="30" as="geometry" />
        </mxCell>
        <mxCell id="WQZjAUGiDbMSdwALumP2-29" value="call for help" style="text;html=1;align=center;verticalAlign=middle;resizable=0;points=[];autosize=1;strokeColor=none;fillColor=none;" vertex="1" parent="1">
          <mxGeometry x="100" y="284" width="80" height="30" as="geometry" />
        </mxCell>
        <mxCell id="WQZjAUGiDbMSdwALumP2-30" value="unconcious of how and why he gets there" style="text;html=1;align=center;verticalAlign=middle;resizable=0;points=[];autosize=1;strokeColor=none;fillColor=none;" vertex="1" parent="1">
          <mxGeometry x="360" y="105" width="240" height="30" as="geometry" />
        </mxCell>
        <mxCell id="WQZjAUGiDbMSdwALumP2-31" value="" style="shape=mxgraph.signs.safety.high_voltage_2;html=1;pointerEvents=1;fillColor=#FFB343;strokeColor=none;verticalLabelPosition=bottom;verticalAlign=top;align=center;sketch=0;" vertex="1" parent="1">
          <mxGeometry x="350" y="105" width="10" height="30" as="geometry" />
        </mxCell>
      </root>
    </mxGraphModel>
  </diagram>
</mxfile>
